#!OML:ASF E:\Steps\Project 1\Capture day 1\Session 2\Subject.ASF
:FULLY-SPECIFIED
:DEGREES
635
root 9.50244 19.5789 -7.46814 -155.749 -5.48591 179.037
lowerback -17.7234 -3.86386 -3.18114
upperback 1.92415 -4.63849 1.25708
thorax 12.5028 -2.45112 1.87943
lowerneck -2.74534 -2.23801 -1.75519
upperneck 16.4753 -2.70998 4.31725
head 5.49066 -0.811445 1.52375
rclavicle -3.43897e-014 1.47101e-014
rhumerus -44.1025 -15.8141 -74.5644
rradius 35.0464
rwrist -2.13715
rhand -5.831 -50.9771
rfingers 7.12502
rthumb 19.9948 280.032
lclavicle -3.43897e-014 1.47101e-014
lhumerus -25.6567 -8.47749 83.6279
lradius 36.3654
lwrist -3.26856
lhand -20.8608 -10.3818
lfingers 7.12502
lthumb 5.50873 19.5266
rfemur -72.5949 0.184147 23.2827
rtibia 65.122
rfoot -386.314 -12.8748
rtoes -24.1919
lfemur -15.1531 -9.4135 -21.7596
ltibia 19.0281
lfoot -4.79163 3.38816
ltoes -38.5944
636
root 9.51256 19.6377 -7.5602 -155.461 -5.32711 178.937
lowerback -17.8847 -3.80033 -3.05402
upperback 1.86158 -4.58327 1.28978
thorax 12.5131 -2.41789 1.85319
lowerneck -3.09425 -2.26469 -1.944
upperneck 16.8832 -2.73016 4.36638
head 5.68183 -0.813247 1.56945
rclavicle -1.13804e-014 -9.93923e-015
rhumerus -43.6748 -15.5401 -74.7268
rradius 35.3033
rwrist -2.48469
rhand -6.4299 -51.0261
rfingers 7.12502
rthumb 19.419 279.924
lclavicle -1.13804e-014 -9.93923e-015
lhumerus -25.7201 -8.11199 83.6083
lradius 36.1086
lwrist -3.51781
lhand -20.7793 -10.3422
lfingers 7.12502
lthumb 5.58742 19.5641
rfemur -72.1498 0.293566 23.1917
rtibia 64.4257
rfoot -384.513 -13.5559
rtoes -31.3936
lfemur -15.3185 -9.21523 -21.8033
ltibia 19.0632
lfoot -3.34086 3.47295
ltoes -37.472
637
root 9.52021 19.6995 -7.64803 -155.078 -5.02706 178.837
lowerback -18.0342 -3.66432 -2.89072
upperback 1.78328 -4.43762 1.29625
thorax 12.487 -2.33898 1.80534
lowerneck -3.86795 -2.34828 -1.92361
upperneck 17.6311 -2.79943 4.10837
head 6.04957 -0.836956 1.47896
rclavicle -1.04362e-015 -3.77691e-015
rhumerus -43.4191 -15.2694 -74.8703
rradius 35.886
rwrist -2.7913
rhand -6.78663 -51.2265
rfingers 7.12502
rthumb 19.076 279.689
lclavicle -1.04362e-015 -3.77691e-015
lhumerus -25.761 -7.85359 83.5985
lradius 35.9663
lwrist -3.6707
lhand -20.4967 -10.303
lfingers 7.12502
lthumb 5.86025 19.596
rfemur -71.8702 0.542851 23.0163
rtibia 63.4813
rfoot -384.766 -13.5348
rtoes -29.8816
lfemur -15.7267 -9.01221 -21.8605
ltibia 19.3244
lfoot -2.08556 3.70241
ltoes -35.0767
638
root 9.5238 19.7659 -7.73762 -154.841 -4.82845 178.759
lowerback -18.0473 -3.52674 -2.54886
upperback 1.66264 -4.32946 1.26521
thorax 12.3181 -2.26385 1.61244
lowerneck -3.24904 -2.19571 -1.65509
upperneck 16.7169 -2.58889 3.71289
head 5.64044 -0.785112 1.32098
rclavicle 7.95139e-015 3.48867e-014
rhumerus -43.405 -15.4076 -74.7665
rradius 36.364
rwrist -2.62642
rhand -6.50673 -51.3087
rfingers 7.12502
rthumb 19.3452 279.634
lclavicle 7.95139e-015 3.48867e-014
lhumerus -26.1613 -7.77044 83.6101
lradius 35.9487
lwrist -3.64436
lhand -20.3489 -10.3508
lfingers 7.12502
lthumb 6.003 19.5442
rfemur -71.3552 0.662359 22.9283
rtibia 63.1161
rfoot -384.269 -13.555
rtoes -32.7736
lfemur -15.9154 -8.88527 -21.8911
ltibia 19.4635
lfoot -0.672404 3.91995
ltoes -33.9125
639
root 9.53112 19.8348 -7.82755 -154.725 -4.65192 178.692
lowerback -17.9916 -3.42407 -2.26334
upperback 1.61048 -4.25461 1.23697
thorax 12.1961 -2.20868 1.44618
lowerneck -3.62743 -2.26278 -1.74344
upperneck 17.2414 -2.65963 3.74605
head 5.87379 -0.80162 1.34212
rclavicle -2.04003e-014 1.87355e-014
rhumerus -43.2684 -15.4702 -74.7584
rradius 36.8279
rwrist -2.55697
rhand -6.13036 -51.6785
rfingers 7.12502
rthumb 19.707 279.3
lclavicle -2.04003e-014 1.87355e-014
lhumerus -26.542 -7.79307 83.5654
lradius 35.9169
lwrist -3.3799
lhand -20.5394 -10.1281
lfingers 7.12502
lthumb 5.81909 19.772
rfemur -70.6617 0.798464 22.8235
rtibia 62.2138
rfoot -385.303 -13.2641
rtoes -29.576
lfemur -16.0133 -8.65286 -21.8723
ltibia 19.5915
lfoot 1.06176 4.04008
ltoes -32.6421
